<svg width="125" height="19" viewBox="0 0 125 19" fill="none" xmlns="http://www.w3.org/2000/svg">
<path d="M6.05 16.325C6.81667 16.425 7.54167 16.6667 8.225 17.05V18H0.5V17.05C0.766667 16.9 1.05 16.7667 1.35 16.65C1.65 16.5167 1.96667 16.4083 2.3 16.325V2.175C1.91667 2.09167 1.575 1.98333 1.275 1.85C0.991667 1.71667 0.733333 1.58333 0.5 1.45V0.499999H13.575C13.575 0.833333 13.5583 1.2 13.525 1.6C13.4917 1.98333 13.45 2.38333 13.4 2.8C13.3667 3.2 13.3167 3.6 13.25 4C13.2 4.38333 13.1417 4.74167 13.075 5.075H12.05L10.9 2.125H6.05V8.7H9.475L10.6 6.775H11.35C11.4167 7.20833 11.4583 7.66667 11.475 8.15C11.5083 8.63333 11.525 9.11667 11.525 9.6C11.5083 10.1 11.4833 10.5833 11.45 11.05C11.4333 11.5167 11.4 11.9333 11.35 12.3H10.6L9.475 10.325H6.05V16.325ZM20.6623 18H14.4873V17.05C14.754 16.8833 15.0373 16.7417 15.3373 16.625C15.654 16.4917 15.9623 16.3917 16.2623 16.325L22.7123 0.2H24.5623L30.8373 16.325C31.1706 16.3917 31.504 16.4917 31.8373 16.625C32.1706 16.7417 32.4623 16.8833 32.7123 17.05V18H24.8873V17.05C25.204 16.9 25.5456 16.7583 25.9123 16.625C26.279 16.4917 26.629 16.3917 26.9623 16.325L25.5123 12.35H19.9623L18.4873 16.325C19.254 16.425 19.979 16.6667 20.6623 17.05V18ZM20.5623 10.725H24.9873L23.3623 5.95L22.8873 3.8H22.8373L22.2873 6L20.5623 10.725ZM39.1252 15.925C39.3085 16.1083 39.5669 16.2833 39.9002 16.45C40.2335 16.6 40.6752 16.675 41.2252 16.675C42.1419 16.675 42.9002 16.4417 43.5002 15.975C44.1169 15.4917 44.4252 14.825 44.4252 13.975C44.4252 13.3583 44.2252 12.8417 43.8252 12.425C43.4419 12.0083 42.9502 11.625 42.3502 11.275C41.7502 10.925 41.1085 10.5833 40.4252 10.25C39.7419 9.9 39.1002 9.49167 38.5002 9.025C37.9002 8.55833 37.4002 8.00833 37.0002 7.375C36.6169 6.725 36.4252 5.925 36.4252 4.975C36.4252 4.15833 36.5752 3.45 36.8752 2.85C37.1752 2.25 37.5835 1.75833 38.1002 1.375C38.6335 0.975 39.2585 0.683333 39.9752 0.499999C40.6919 0.299999 41.4669 0.2 42.3002 0.2C43.3169 0.2 44.2585 0.275 45.1252 0.425C46.0085 0.558332 46.8002 0.774999 47.5002 1.075C47.4835 1.40833 47.4502 1.79167 47.4002 2.225C47.3669 2.65833 47.3169 3.09167 47.2502 3.525C47.1835 3.94167 47.1085 4.34167 47.0252 4.725C46.9585 5.09167 46.8919 5.4 46.8252 5.65H45.8002L44.6502 2.225C44.4502 2.125 44.1502 2.03333 43.7502 1.95C43.3669 1.86667 42.9669 1.825 42.5502 1.825C41.8502 1.825 41.2585 2.00833 40.7752 2.375C40.2919 2.74167 40.0502 3.275 40.0502 3.975C40.0502 4.60833 40.2502 5.15 40.6502 5.6C41.0502 6.03333 41.5502 6.43333 42.1502 6.8C42.7502 7.16667 43.4002 7.53333 44.1002 7.9C44.8169 8.25 45.4752 8.65833 46.0752 9.125C46.6752 9.59167 47.1752 10.1417 47.5752 10.775C47.9752 11.3917 48.1752 12.1583 48.1752 13.075C48.1752 14.7417 47.6085 16.0333 46.4752 16.95C45.3585 17.85 43.7085 18.3 41.5252 18.3C40.9919 18.3 40.4502 18.2667 39.9002 18.2C39.3669 18.1333 38.8585 18.0417 38.3752 17.925C37.8919 17.8083 37.4585 17.6833 37.0752 17.55C36.7085 17.4167 36.4335 17.275 36.2502 17.125C36.2669 16.7417 36.3085 16.3333 36.3752 15.9C36.4419 15.45 36.5085 15.0083 36.5752 14.575C36.6585 14.125 36.7419 13.7 36.8252 13.3C36.9085 12.9 36.9919 12.55 37.0752 12.25H38.1002L39.1252 15.925ZM59.7156 18H52.1406V17.05C52.424 16.9 52.749 16.7583 53.1156 16.625C53.499 16.4917 53.8573 16.3917 54.1906 16.325V2.175C53.7906 2.10833 53.4073 2.00833 53.0406 1.875C52.674 1.74167 52.374 1.6 52.1406 1.45V0.499999H59.7156V1.45C59.4656 1.61667 59.1823 1.76667 58.8656 1.9C58.5656 2.03333 58.2573 2.125 57.9406 2.175V8.225H64.5656V2.175C64.199 2.10833 63.8656 2.00833 63.5656 1.875C63.2823 1.74167 63.024 1.6 62.7906 1.45V0.499999H70.3656V1.45C70.0823 1.63333 69.7573 1.78333 69.3906 1.9C69.024 2.01667 68.6656 2.10833 68.3156 2.175V16.325C68.699 16.3917 69.0656 16.4917 69.4156 16.625C69.7823 16.7583 70.099 16.9 70.3656 17.05V18H62.7906V17.05C63.0406 16.9 63.3156 16.7583 63.6156 16.625C63.9156 16.4917 64.2323 16.3917 64.5656 16.325V9.85H57.9406V16.325C58.274 16.3917 58.5823 16.4833 58.8656 16.6C59.149 16.7167 59.4323 16.8667 59.7156 17.05V18ZM81.9045 18H74.1045V17.05C74.7712 16.6833 75.4462 16.4417 76.1295 16.325V2.175C75.7962 2.125 75.4462 2.03333 75.0795 1.9C74.7128 1.76667 74.3878 1.61667 74.1045 1.45V0.499999H81.9045V1.45C81.6045 1.63333 81.2712 1.79167 80.9045 1.925C80.5545 2.04167 80.2128 2.125 79.8795 2.175V16.325C80.2128 16.3917 80.5545 16.4833 80.9045 16.6C81.2712 16.7167 81.6045 16.8667 81.9045 17.05V18ZM86.1313 9.25C86.1313 7.95 86.3146 6.75 86.6813 5.65C87.0479 4.53333 87.5896 3.575 88.3063 2.775C89.0229 1.95833 89.9063 1.325 90.9563 0.874998C92.0063 0.424999 93.2146 0.2 94.5813 0.2C95.9479 0.2 97.1563 0.424999 98.2063 0.874998C99.2563 1.325 100.131 1.95833 100.831 2.775C101.548 3.575 102.09 4.53333 102.456 5.65C102.823 6.75 103.006 7.95 103.006 9.25C103.006 10.55 102.823 11.7583 102.456 12.875C102.09 13.975 101.548 14.9333 100.831 15.75C100.131 16.55 99.2563 17.175 98.2063 17.625C97.1563 18.075 95.9479 18.3 94.5813 18.3C93.2146 18.3 92.0063 18.075 90.9563 17.625C89.9063 17.175 89.0229 16.55 88.3063 15.75C87.5896 14.9333 87.0479 13.975 86.6813 12.875C86.3146 11.7583 86.1313 10.55 86.1313 9.25ZM90.3813 9.25C90.3813 10.3167 90.4646 11.3083 90.6313 12.225C90.7979 13.125 91.0563 13.9083 91.4062 14.575C91.7729 15.225 92.2313 15.7417 92.7813 16.125C93.3479 16.4917 94.0229 16.675 94.8063 16.675C95.5229 16.675 96.1313 16.4917 96.6313 16.125C97.1313 15.7417 97.5396 15.225 97.8563 14.575C98.1729 13.9083 98.3979 13.125 98.5313 12.225C98.6813 11.3083 98.7563 10.3167 98.7563 9.25C98.7563 8.18333 98.6729 7.2 98.5063 6.3C98.3563 5.38333 98.1063 4.6 97.7563 3.95C97.4229 3.28333 96.9729 2.76667 96.4063 2.4C95.8563 2.01667 95.1813 1.825 94.3813 1.825C93.6146 1.825 92.9729 2.01667 92.4563 2.4C91.9396 2.76667 91.5229 3.28333 91.2063 3.95C90.9063 4.6 90.6896 5.38333 90.5563 6.3C90.4396 7.2 90.3813 8.18333 90.3813 9.25ZM118.754 0.499999H124.954V1.45C124.637 1.7 124.287 1.925 123.904 2.125C123.521 2.30833 123.162 2.45 122.829 2.55V18.3H120.704L111.879 5.55L110.879 3.625H110.804L111.029 5.625V16.05C111.362 16.1333 111.729 16.275 112.129 16.475C112.546 16.6583 112.896 16.85 113.179 17.05V18H107.004V17.05C107.304 16.85 107.629 16.6667 107.979 16.5C108.346 16.3167 108.721 16.1667 109.104 16.05V2.4C108.771 2.26667 108.437 2.11667 108.104 1.95C107.771 1.78333 107.471 1.60833 107.204 1.425V0.499999H112.604L119.779 10.9L120.929 13.05H121.029L120.904 10.9V2.55C120.504 2.41667 120.112 2.25833 119.729 2.075C119.362 1.875 119.037 1.66667 118.754 1.45V0.499999Z" fill="#171717"/>
</svg>
